<svg xmlns="http://www.w3.org/2000/svg" xmlns:xlink="http://www.w3.org/1999/xlink" xmlns:lucid="lucid" width="3066.29" height="1096.68"><g transform="translate(930.9511187938169 -1363.951783650247)" lucid:page-tab-id=".3iU.9qX67z7"><path d="M-1806.87 1258.84h5484.6v1322.83h-5484.6z" fill="#fff"/><path d="M-910.95 1826.07a6 6 0 0 1 6-6h218.88a6 6 0 0 1 6 6v161.16a6 6 0 0 1-6 6h-218.88a6 6 0 0 1-6-6z" stroke="#000" stroke-width="2" fill-opacity="0"/><use xlink:href="#a" transform="matrix(1,0,0,1,-898.9511187938169,1832.0725624762144) translate(21.916666666666686 67.5625)"/><use xlink:href="#b" transform="matrix(1,0,0,1,-898.9511187938169,1832.0725624762144) translate(60.80555555555557 67.5625)"/><use xlink:href="#c" transform="matrix(1,0,0,1,-898.9511187938169,1832.0725624762144) translate(131.80555555555554 67.5625)"/><use xlink:href="#d" transform="matrix(1,0,0,1,-898.9511187938169,1832.0725624762144) translate(43.250000000000014 91.5625)"/><use xlink:href="#e" transform="matrix(1,0,0,1,-898.9511187938169,1832.0725624762144) translate(91.63888888888889 91.5625)"/><path d="M-333.75 1826.07a6 6 0 0 1 6-6h218.88a6 6 0 0 1 6 6v161.16a6 6 0 0 1-6 6h-218.88a6 6 0 0 1-6-6z" stroke="#000" stroke-width="2" fill-opacity="0"/><use xlink:href="#f" transform="matrix(1,0,0,1,-321.7521809816718,1832.0725624762144) translate(21.8888888888889 76.9375)"/><use xlink:href="#g" transform="matrix(1,0,0,1,-321.7521809816718,1832.0725624762144) translate(129.61111111111111 76.9375)"/><path d="M-678.57 1906.65h327.43" stroke="#4c535d" fill="none"/><path d="M-678.56 1907.15h-.5v-1h.5z" stroke="#4c535d" stroke-width=".05" fill="#4c535d"/><path d="M-336.37 1906.65l-14.27 4.64V1902z" stroke="#4c535d" fill="#4c535d"/><path d="M214.6 1462.44a6 6 0 0 1 6-6h218.87a6 6 0 0 1 6 6v60.48a6 6 0 0 1-6 6H220.6a6 6 0 0 1-6-6z" stroke="#000" stroke-width="2" fill-opacity="0"/><use xlink:href="#h" transform="matrix(1,0,0,1,226.5868099398661,1468.4372316545628) translate(63.027777777777786 28.25)"/><path d="M214.6 1943a6 6 0 0 1 6-6h218.87a6 6 0 0 1 6 6v60.47a6 6 0 0 1-6 6H220.6a6 6 0 0 1-6-6z" stroke="#000" stroke-width="2"/><use xlink:href="#i" transform="matrix(1,0,0,1,226.58680993986474,1948.9889054609534) translate(78.36111111111111 28.25)"/><path d="M214.6 1693.32a6 6 0 0 1 6-6h218.87a6 6 0 0 1 6 6v60.48a6 6 0 0 1-6 6H220.6a6 6 0 0 1-6-6z" stroke="#000" stroke-width="2"/><use xlink:href="#j" transform="matrix(1,0,0,1,226.58680993986542,1699.3168067794209) translate(74.6388888888889 28.25)"/><path d="M210.58 2077.22a6 6 0 0 1 6-6h218.88a6 6 0 0 1 6 6v60.5a6 6 0 0 1-6 6H216.58a6 6 0 0 1-6-6z" stroke="#000" stroke-width="2" fill-opacity="0"/><use xlink:href="#k" transform="matrix(1,0,0,1,222.57848398283784,2083.2212165800574) translate(69.63888888888889 28.25)"/><path d="M210.58 2192.66a6 6 0 0 1 6-6h218.88a6 6 0 0 1 6 6v60.5a6 6 0 0 1-6 6H216.58a6 6 0 0 1-6-6z" stroke="#000" stroke-width="2" fill-opacity="0"/><use xlink:href="#l" transform="matrix(1,0,0,1,222.57848398283733,2198.6610041424856) translate(28.083333333333343 28.25)"/><path d="M214.6 1808.76a6 6 0 0 1 6-6h218.87a6 6 0 0 1 6 6v60.48a6 6 0 0 1-6 6H220.6a6 6 0 0 1-6-6z" stroke="#000" stroke-width="2"/><use xlink:href="#m" transform="matrix(1,0,0,1,226.5868099398645,1814.75659434185) translate(62.41666666666667 28.25)"/><path d="M434.27 2261.15v33a6 6 0 0 1-6 6h-251.7a6 6 0 0 1-6-6v-539.5a6 6 0 0 1 6-6h71.3a6 6 0 0 0 6-6v-15.5" stroke="#000" stroke-opacity="0" stroke-width="2" fill="none"/><path d="M253.87 1711.9l4.63 14.26h-9.27z" stroke="#000" stroke-opacity="0" stroke-width="2" fill-opacity="0"/><path d="M589.77 1389.95a6 6 0 0 1 6-6h218.88a6 6 0 0 1 6 6v60.5a6 6 0 0 1-6 6H595.77a6 6 0 0 1-6-6z" stroke="#000" stroke-width="2" fill-opacity="0"/><use xlink:href="#n" transform="matrix(1,0,0,1,601.7661195177604,1395.951783650247) translate(63.027777777777786 28.25)"/><path d="M589.77 1534.92a6 6 0 0 1 6-6h218.88a6 6 0 0 1 6 6v60.5a6 6 0 0 1-6 6H595.77a6 6 0 0 1-6-6z" stroke="#000" stroke-width="2" fill-opacity="0"/><use xlink:href="#o" transform="matrix(1,0,0,1,601.7661195177604,1540.9226796588787) translate(64.08333333333334 28.25)"/><path d="M936.1 1462.44a6 6 0 0 1 6-6h218.86a6 6 0 0 1 6 6v60.48a6 6 0 0 1-6 6H942.08a6 6 0 0 1-6-6z" stroke="#000" stroke-width="2"/><use xlink:href="#p" transform="matrix(1,0,0,1,948.0854822050476,1468.4372316545628) translate(77.97222222222223 28.25)"/><path d="M936.1 1642.17a6 6 0 0 1 6-6h218.86a6 6 0 0 1 6 6v60.5a6 6 0 0 1-6 6H942.08a6 6 0 0 1-6-6z" stroke="#000" stroke-width="2" fill-opacity="0"/><use xlink:href="#q" transform="matrix(1,0,0,1,948.0854822050476,1648.1742962430424) translate(56.36111111111112 28.25)"/><path d="M1253.55 1562.17a6 6 0 0 1 6-6H1565a6 6 0 0 1 6 6v91.9a6 6 0 0 1-6 6h-305.45a6 6 0 0 1-6-6z" stroke="#000" stroke-width="2"/><use xlink:href="#r" transform="matrix(1,0,0,1,1265.544898001727,1568.1718388160566) translate(49.44444444444446 43.5)"/><use xlink:href="#s" transform="matrix(1,0,0,1,1265.544898001727,1568.1718388160566) translate(98.27777777777779 43.5)"/><use xlink:href="#t" transform="matrix(1,0,0,1,1265.544898001727,1568.1718388160566) translate(173.66666666666666 43.5)"/><path d="M1253.55 1693.32a6 6 0 0 1 6-6H1565a6 6 0 0 1 6 6v91.9a6 6 0 0 1-6 6h-305.45a6 6 0 0 1-6-6z" stroke="#000" stroke-width="2"/><use xlink:href="#u" transform="matrix(1,0,0,1,1265.544898001727,1699.3168067794209) translate(50.0277777777778 43.5)"/><use xlink:href="#s" transform="matrix(1,0,0,1,1265.544898001727,1699.3168067794209) translate(97.69444444444446 43.5)"/><use xlink:href="#t" transform="matrix(1,0,0,1,1265.544898001727,1699.3168067794209) translate(173.08333333333331 43.5)"/><path d="M1884.45 1952.2a6 6 0 0 1 6-6h218.88a6 6 0 0 1 6 6v161.15a6 6 0 0 1-6 6h-218.88a6 6 0 0 1-6-6z" stroke="#000" stroke-opacity="0" stroke-width="2" fill="#cc4e00"/><use xlink:href="#v" transform="matrix(1,0,0,1,1896.4554036380582,1958.1936769296913) translate(34.72222222222223 67.5625)"/><use xlink:href="#w" transform="matrix(1,0,0,1,1896.4554036380582,1958.1936769296913) translate(115.72222222222221 67.5625)"/><use xlink:href="#x" transform="matrix(1,0,0,1,1896.4554036380582,1958.1936769296913) translate(20.888888888888914 91.5625)"/><use xlink:href="#y" transform="matrix(1,0,0,1,1896.4554036380582,1958.1936769296913) translate(131.77777777777777 91.5625)"/><path d="M-622.35 1833.87a6 6 0 0 1 6-6h218.88a6 6 0 0 1 6 6v106.32a6 6 0 0 1-6 6h-218.88a6 6 0 0 1-6-6z" stroke="#000" stroke-opacity="0" fill="#fff" fill-opacity="0"/><use xlink:href="#z" transform="matrix(1,0,0,1,-617.3516498877443,1832.8678946782015) translate(16.22222222222223 46.65625)"/><use xlink:href="#A" transform="matrix(1,0,0,1,-617.3516498877443,1832.8678946782015) translate(121.55555555555556 46.65625)"/><use xlink:href="#B" transform="matrix(1,0,0,1,-617.3516498877443,1832.8678946782015) translate(48.88888888888889 70.65625)"/><path d="M-444.24 1827.37v-63.78a6 6 0 0 1 6-6h11.9a6 6 0 0 0 6-6v-47.9" stroke="#000" stroke-opacity="0" fill="none"/><path d="M-420.33 1688.93l4.63 14.27h-9.27z" stroke="#000" stroke-opacity="0" fill-opacity="0"/><path d="M-101.37 1906.65H49.86a6 6 0 0 0 6-6v-401.97a6 6 0 0 1 6-6H197.2" stroke="#000" fill="none"/><path d="M-101.36 1907.15h-.5v-1h.5z" stroke="#000" stroke-width=".05"/><path d="M211.97 1492.68l-14.27 4.63v-9.25z" stroke="#000"/><path d="M442.96 2222.9h57.93a6 6 0 0 0 6-6v-69.34a6 6 0 0 1 6-6h57.52" stroke="#000" stroke-opacity="0" fill="none"/><path d="M553.13 2151.74l17.22-10.18-17.22-10.18" stroke="#000" stroke-opacity="0" fill="none"/><path d="M-101.37 1906.65H49.86a6 6 0 0 0 6-6v-401.97a6 6 0 0 1 6-6H197.2" stroke="#000" fill="none"/><path d="M-101.36 1907.15h-.5v-1h.5z" stroke="#000" stroke-width=".05"/><path d="M211.97 1492.68l-14.27 4.63v-9.25z" stroke="#000"/><path d="M-101.37 1906.65H49.86a6 6 0 0 0 6-6V1716.7a6 6 0 0 1 6-6H197.2" stroke="#000" fill="none"/><path d="M-101.36 1907.15h-.5v-1h.5z" stroke="#000" stroke-width=".05"/><path d="M211.97 1710.7l-14.27 4.64v-9.27z" stroke="#000"/><path d="M-101.37 1906.65H49.86a6 6 0 0 0 6-6V1845a6 6 0 0 1 6-6H197.2" stroke="#000" fill="none"/><path d="M-101.36 1907.15h-.5v-1h.5z" stroke="#000" stroke-width=".05"/><path d="M211.97 1839l-14.27 4.63v-9.27z" stroke="#000"/><path d="M-101.37 1906.65H49.86a6 6 0 0 1 6 6v54.58a6 6 0 0 0 6 6H197.2" stroke="#000" fill="none"/><path d="M-101.36 1907.15h-.5v-1h.5z" stroke="#000" stroke-width=".05"/><path d="M211.97 1973.23l-14.27 4.64v-9.27z" stroke="#000"/><path d="M-101.37 1906.65H47.85a6 6 0 0 1 6 6v188.8a6 6 0 0 0 6 6H193.2" stroke="#000" fill="none"/><path d="M-101.36 1907.15h-.5v-1h.5z" stroke="#000" stroke-width=".05"/><path d="M207.96 2107.46l-14.27 4.64v-9.27z" stroke="#000"/><path d="M-101.37 1906.65H47.85a6 6 0 0 1 6 6v304.25a6 6 0 0 0 6 6H193.2" stroke="#000" fill="none"/><path d="M-101.36 1907.15h-.5v-1h.5z" stroke="#000" stroke-width=".05"/><path d="M207.96 2222.9l-14.27 4.64v-9.27z" stroke="#000"/><path d="M446.97 1492.68h64.65a6 6 0 0 0 6-6v-60.5a6 6 0 0 1 6-6h48.76" stroke="#000" fill="none"/><path d="M446.98 1493.18h-.5v-1h.5z" stroke="#000" stroke-width=".05"/><path d="M587.15 1420.2l-14.27 4.63v-9.27z" stroke="#000"/><path d="M446.97 1492.68h64.65a6 6 0 0 1 6 6v60.48a6 6 0 0 0 6 6h48.76" stroke="#000" fill="none"/><path d="M446.98 1493.18h-.5v-1h.5z" stroke="#000" stroke-width=".05"/><path d="M587.15 1565.16l-14.27 4.64v-9.27z" stroke="#000"/><path d="M822.15 1420.2h50.22a6 6 0 0 1 6 6v60.48a6 6 0 0 0 6 6h34.33" stroke="#000" fill="none"/><path d="M822.16 1420.7h-.5v-1h.5z" stroke="#000" stroke-width=".05"/><path d="M933.47 1492.68l-14.27 4.63v-9.25z" stroke="#000"/><path d="M822.15 1565.16h50.22a6 6 0 0 0 6-6v-59.8a6 6 0 0 1 6-6h34.33" stroke="#000" fill="none"/><path d="M822.16 1565.66h-.5v-1h.5z" stroke="#000" stroke-width=".05"/><path d="M933.47 1493.35L919.2 1498v-9.28z" stroke="#000"/><path d="M822.15 1565.16h50.22a6 6 0 0 1 6 6v94.48a6 6 0 0 0 6 6h34.33" stroke="#000" fill="none"/><path d="M822.16 1565.66h-.5v-1h.5z" stroke="#000" stroke-width=".05"/><path d="M933.47 1671.64l-14.27 4.64V1667z" stroke="#000"/><path d="M1168.46 1672.42h35.8a6 6 0 0 0 6-6v-52.3a6 6 0 0 1 6-6h19.9" stroke="#000" fill="none"/><path d="M1168.48 1672.92h-.52v-1h.52z" stroke="#000" stroke-width=".05"/><path d="M1250.93 1608.12l-14.27 4.64v-9.28z" stroke="#000"/><path d="M1168.46 1672.42h35.8a6 6 0 0 1 6 6v54.85a6 6 0 0 0 6 6h19.9" stroke="#000" fill="none"/><path d="M1168.48 1672.92h-.52v-1h.52z" stroke="#000" stroke-width=".05"/><path d="M1250.93 1739.27l-14.27 4.63v-9.27z" stroke="#000"/><path d="M1572.5 1608.12h149.73a6 6 0 0 1 6 6v412.65a6 6 0 0 0 6 6h133.84" stroke="#000" fill="none"/><path d="M1572.52 1608.62h-.52v-1h.52z" stroke="#000" stroke-width=".05"/><path d="M1882.84 2032.77l-14.27 4.64v-9.26z" stroke="#000"/><path d="M1572.5 1739.27h149.73a6 6 0 0 1 6 6v281.5a6 6 0 0 0 6 6h133.84" stroke="#000" fill="none"/><path d="M1572.52 1739.77h-.52v-1h.52z" stroke="#000" stroke-width=".05"/><path d="M1882.84 2032.77l-14.27 4.64v-9.26z" stroke="#000"/><path d="M1168.46 1492.68h555.27a6 6 0 0 1 6 6v528.1a6 6 0 0 0 6 6h132.34" stroke="#000" fill="none"/><path d="M1168.48 1493.18h-.52v-1h.52z" stroke="#000" stroke-width=".05"/><path d="M1882.84 2032.77l-14.27 4.64v-9.26z" stroke="#000"/><path d="M446.97 1723.56h165.66a6 6 0 0 1 6 6v297.2a6 6 0 0 0 6 6h1243.44" stroke="#000" fill="none"/><path d="M446.98 1724.06h-.5v-1h.5z" stroke="#000" stroke-width=".05"/><path d="M1882.84 2032.77l-14.27 4.64v-9.26z" stroke="#000"/><path d="M214.6 2308.1a6 6 0 0 1 6-6h218.87a6 6 0 0 1 6 6v126.53a6 6 0 0 1-6 6H220.6a6 6 0 0 1-6-6z" stroke="#000" stroke-opacity="0" stroke-width="2"/><g><use xlink:href="#C" transform="matrix(1,0,0,1,226.5868099398661,2314.1007917049155) translate(28.694444444444457 48.34375)"/><use xlink:href="#D" transform="matrix(1,0,0,1,226.5868099398661,2314.1007917049155) translate(107.3611111111111 48.34375)"/><use xlink:href="#E" transform="matrix(1,0,0,1,226.5868099398661,2314.1007917049155) translate(73.72222222222223 72.34375)"/></g><path d="M445.97 2371.36H1993.9a6 6 0 0 0 6-6v-229.62" stroke="#000" fill="none"/><path d="M445.98 2371.86h-.5v-1h.5z" stroke="#000" stroke-width=".05"/><path d="M1999.9 2120.97l4.63 14.27h-9.27z" stroke="#000"/><defs><path fill="#3a414a" d="M126-127c33 6 58 20 58 59 0 88-139 92-164 29-3-8-5-16-6-25l32-3c6 27 21 44 54 44 32 0 52-15 52-46 0-38-36-46-79-43v-28c39 1 72-4 72-42 0-27-17-43-46-43-28 0-47 15-49 41l-32-3c6-42 35-63 81-64 48-1 79 21 79 65 0 36-21 52-52 59" id="F"/><path fill="#3a414a" d="M110-160c48 1 74 30 74 79 0 53-28 85-80 85-65 0-83-55-86-122-5-90 50-162 133-122 14 7 22 21 27 39l-31 6c-5-40-67-38-82-6-9 19-15 44-15 74 11-20 30-34 60-33zm-7 138c34 0 49-23 49-58s-16-56-50-56c-29 0-50 16-49 49 1 36 15 65 50 65" id="G"/><path fill="#3a414a" d="M101-251c68 0 85 55 85 127S166 4 100 4C33 4 14-52 14-124c0-73 17-127 87-127zm-1 229c47 0 54-49 54-102s-4-102-53-102c-51 0-55 48-55 102 0 53 5 102 54 102" id="H"/><g id="a"><use transform="matrix(0.055555555555555546,0,0,0.055555555555555546,0,0)" xlink:href="#F"/><use transform="matrix(0.055555555555555546,0,0,0.055555555555555546,11.111111111111109,0)" xlink:href="#G"/><use transform="matrix(0.055555555555555546,0,0,0.055555555555555546,22.222222222222218,0)" xlink:href="#H"/></g><path fill="#3a414a" d="M30-248c118-7 216 8 213 122C240-48 200 0 122 0H30v-248zM63-27c89 8 146-16 146-99s-60-101-146-95v194" id="I"/><path fill="#3a414a" d="M100-194c63 0 86 42 84 106H49c0 40 14 67 53 68 26 1 43-12 49-29l28 8c-11 28-37 45-77 45C44 4 14-33 15-96c1-61 26-98 85-98zm52 81c6-60-76-77-97-28-3 7-6 17-6 28h103" id="J"/><path fill="#3a414a" d="M177-190C167-65 218 103 67 71c-23-6-38-20-44-43l32-5c15 47 100 32 89-28v-30C133-14 115 1 83 1 29 1 15-40 15-95c0-56 16-97 71-98 29-1 48 16 59 35 1-10 0-23 2-32h30zM94-22c36 0 50-32 50-73 0-42-14-75-50-75-39 0-46 34-46 75s6 73 46 73" id="K"/><path fill="#3a414a" d="M114-163C36-179 61-72 57 0H25l-1-190h30c1 12-1 29 2 39 6-27 23-49 58-41v29" id="L"/><g id="b"><use transform="matrix(0.055555555555555546,0,0,0.055555555555555546,0,0)" xlink:href="#I"/><use transform="matrix(0.055555555555555546,0,0,0.055555555555555546,14.388888888888886,0)" xlink:href="#J"/><use transform="matrix(0.055555555555555546,0,0,0.055555555555555546,25.499999999999993,0)" xlink:href="#K"/><use transform="matrix(0.055555555555555546,0,0,0.055555555555555546,36.6111111111111,0)" xlink:href="#L"/><use transform="matrix(0.055555555555555546,0,0,0.055555555555555546,43.22222222222221,0)" xlink:href="#J"/><use transform="matrix(0.055555555555555546,0,0,0.055555555555555546,54.333333333333314,0)" xlink:href="#J"/></g><path fill="#3a414a" d="M185-189c-5-48-123-54-124 2 14 75 158 14 163 119 3 78-121 87-175 55-17-10-28-26-33-46l33-7c5 56 141 63 141-1 0-78-155-14-162-118-5-82 145-84 179-34 5 7 8 16 11 25" id="M"/><path fill="#3a414a" d="M59-47c-2 24 18 29 38 22v24C64 9 27 4 27-40v-127H5v-23h24l9-43h21v43h35v23H59v120" id="N"/><g id="c"><use transform="matrix(0.055555555555555546,0,0,0.055555555555555546,0,0)" xlink:href="#M"/><use transform="matrix(0.055555555555555546,0,0,0.055555555555555546,13.33333333333333,0)" xlink:href="#N"/><use transform="matrix(0.055555555555555546,0,0,0.055555555555555546,18.888888888888886,0)" xlink:href="#L"/><use transform="matrix(0.055555555555555546,0,0,0.055555555555555546,25.499999999999996,0)" xlink:href="#J"/><use transform="matrix(0.055555555555555546,0,0,0.055555555555555546,36.61111111111111,0)" xlink:href="#J"/><use transform="matrix(0.055555555555555546,0,0,0.055555555555555546,47.722222222222214,0)" xlink:href="#N"/></g><path fill="#3a414a" d="M137 0h-34L2-248h35l83 218 83-218h36" id="O"/><path fill="#3a414a" d="M24-231v-30h32v30H24zM24 0v-190h32V0H24" id="P"/><path fill="#3a414a" d="M206 0h-36l-40-164L89 0H53L-1-190h32L70-26l43-164h34l41 164 42-164h31" id="Q"/><g id="d"><use transform="matrix(0.055555555555555546,0,0,0.055555555555555546,0,0)" xlink:href="#O"/><use transform="matrix(0.055555555555555546,0,0,0.055555555555555546,12.944444444444441,0)" xlink:href="#P"/><use transform="matrix(0.055555555555555546,0,0,0.055555555555555546,17.33333333333333,0)" xlink:href="#J"/><use transform="matrix(0.055555555555555546,0,0,0.055555555555555546,28.444444444444436,0)" xlink:href="#Q"/></g><path fill="#3a414a" d="M33 0v-248h34V0H33" id="R"/><path fill="#3a414a" d="M210-169c-67 3-38 105-44 169h-31v-121c0-29-5-50-35-48C34-165 62-65 56 0H25l-1-190h30c1 10-1 24 2 32 10-44 99-50 107 0 11-21 27-35 58-36 85-2 47 119 55 194h-31v-121c0-29-5-49-35-48" id="S"/><path fill="#3a414a" d="M141-36C126-15 110 5 73 4 37 3 15-17 15-53c-1-64 63-63 125-63 3-35-9-54-41-54-24 1-41 7-42 31l-33-3c5-37 33-52 76-52 45 0 72 20 72 64v82c-1 20 7 32 28 27v20c-31 9-61-2-59-35zM48-53c0 20 12 33 32 33 41-3 63-29 60-74-43 2-92-5-92 41" id="T"/><path fill="#3a414a" d="M179-190L93 31C79 59 56 82 12 73V49c39 6 53-20 64-50L1-190h34L92-34l54-156h33" id="U"/><g id="e"><use transform="matrix(0.055555555555555546,0,0,0.055555555555555546,0,0)" xlink:href="#R"/><use transform="matrix(0.055555555555555546,0,0,0.055555555555555546,5.5555555555555545,0)" xlink:href="#S"/><use transform="matrix(0.055555555555555546,0,0,0.055555555555555546,22.16666666666666,0)" xlink:href="#T"/><use transform="matrix(0.055555555555555546,0,0,0.055555555555555546,33.27777777777777,0)" xlink:href="#K"/><use transform="matrix(0.055555555555555546,0,0,0.055555555555555546,44.38888888888888,0)" xlink:href="#J"/><use transform="matrix(0.055555555555555546,0,0,0.055555555555555546,55.499999999999986,0)" xlink:href="#L"/><use transform="matrix(0.055555555555555546,0,0,0.055555555555555546,62.111111111111086,0)" xlink:href="#U"/></g><path fill="#3a414a" d="M117-194c89-4 53 116 60 194h-32v-121c0-31-8-49-39-48C34-167 62-67 57 0H25l-1-190h30c1 10-1 24 2 32 11-22 29-35 61-36" id="V"/><path fill="#3a414a" d="M85-194c31 0 48 13 60 33l-1-100h32l1 261h-30c-2-10 0-23-3-31C134-8 116 4 85 4 32 4 16-35 15-94c0-66 23-100 70-100zm9 24c-40 0-46 34-46 75 0 40 6 74 45 74 42 0 51-32 51-76 0-42-9-74-50-73" id="W"/><g id="f"><use transform="matrix(0.055555555555555546,0,0,0.055555555555555546,0,0)" xlink:href="#M"/><use transform="matrix(0.055555555555555546,0,0,0.055555555555555546,13.33333333333333,0)" xlink:href="#J"/><use transform="matrix(0.055555555555555546,0,0,0.055555555555555546,24.44444444444444,0)" xlink:href="#K"/><use transform="matrix(0.055555555555555546,0,0,0.055555555555555546,35.55555555555555,0)" xlink:href="#S"/><use transform="matrix(0.055555555555555546,0,0,0.055555555555555546,52.16666666666666,0)" xlink:href="#J"/><use transform="matrix(0.055555555555555546,0,0,0.055555555555555546,63.277777777777764,0)" xlink:href="#V"/><use transform="matrix(0.055555555555555546,0,0,0.055555555555555546,74.38888888888887,0)" xlink:href="#N"/><use transform="matrix(0.055555555555555546,0,0,0.055555555555555546,79.94444444444443,0)" xlink:href="#J"/><use transform="matrix(0.055555555555555546,0,0,0.055555555555555546,91.05555555555554,0)" xlink:href="#W"/></g><g id="g"><use transform="matrix(0.055555555555555546,0,0,0.055555555555555546,0,0)" xlink:href="#R"/><use transform="matrix(0.055555555555555546,0,0,0.055555555555555546,5.5555555555555545,0)" xlink:href="#S"/><use transform="matrix(0.055555555555555546,0,0,0.055555555555555546,22.16666666666666,0)" xlink:href="#T"/><use transform="matrix(0.055555555555555546,0,0,0.055555555555555546,33.27777777777777,0)" xlink:href="#K"/><use transform="matrix(0.055555555555555546,0,0,0.055555555555555546,44.38888888888888,0)" xlink:href="#J"/></g><path fill="#3a414a" d="M160-131c35 5 61 23 61 61C221 17 115-2 30 0v-248c76 3 177-17 177 60 0 33-19 50-47 57zm-97-11c50-1 110 9 110-42 0-47-63-36-110-37v79zm0 115c55-2 124 14 124-45 0-56-70-42-124-44v89" id="X"/><path fill="#3a414a" d="M84 4C-5 8 30-112 23-190h32v120c0 31 7 50 39 49 72-2 45-101 50-169h31l1 190h-30c-1-10 1-25-2-33-11 22-28 36-60 37" id="Y"/><path fill="#3a414a" d="M24 0v-261h32V0H24" id="Z"/><path fill="#3a414a" d="M135-143c-3-34-86-38-87 0 15 53 115 12 119 90S17 21 10-45l28-5c4 36 97 45 98 0-10-56-113-15-118-90-4-57 82-63 122-42 12 7 21 19 24 35" id="aa"/><g id="h"><use transform="matrix(0.055555555555555546,0,0,0.055555555555555546,0,0)" xlink:href="#X"/><use transform="matrix(0.055555555555555546,0,0,0.055555555555555546,13.33333333333333,0)" xlink:href="#Y"/><use transform="matrix(0.055555555555555546,0,0,0.055555555555555546,24.44444444444444,0)" xlink:href="#P"/><use transform="matrix(0.055555555555555546,0,0,0.055555555555555546,28.83333333333333,0)" xlink:href="#Z"/><use transform="matrix(0.055555555555555546,0,0,0.055555555555555546,33.222222222222214,0)" xlink:href="#W"/><use transform="matrix(0.055555555555555546,0,0,0.055555555555555546,44.33333333333332,0)" xlink:href="#P"/><use transform="matrix(0.055555555555555546,0,0,0.055555555555555546,48.72222222222221,0)" xlink:href="#V"/><use transform="matrix(0.055555555555555546,0,0,0.055555555555555546,59.83333333333331,0)" xlink:href="#K"/><use transform="matrix(0.055555555555555546,0,0,0.055555555555555546,70.94444444444443,0)" xlink:href="#aa"/></g><path fill="#fff" d="M127-220V0H93v-220H8v-28h204v28h-85" id="ab"/><path fill="#fff" d="M114-163C36-179 61-72 57 0H25l-1-190h30c1 12-1 29 2 39 6-27 23-49 58-41v29" id="ac"/><path fill="#fff" d="M100-194c63 0 86 42 84 106H49c0 40 14 67 53 68 26 1 43-12 49-29l28 8c-11 28-37 45-77 45C44 4 14-33 15-96c1-61 26-98 85-98zm52 81c6-60-76-77-97-28-3 7-6 17-6 28h103" id="ad"/><path fill="#fff" d="M135-143c-3-34-86-38-87 0 15 53 115 12 119 90S17 21 10-45l28-5c4 36 97 45 98 0-10-56-113-15-118-90-4-57 82-63 122-42 12 7 21 19 24 35" id="ae"/><g id="i"><use transform="matrix(0.055555555555555546,0,0,0.055555555555555546,0,0)" xlink:href="#ab"/><use transform="matrix(0.055555555555555546,0,0,0.055555555555555546,11.444444444444443,0)" xlink:href="#ac"/><use transform="matrix(0.055555555555555546,0,0,0.055555555555555546,18.055555555555554,0)" xlink:href="#ad"/><use transform="matrix(0.055555555555555546,0,0,0.055555555555555546,29.16666666666666,0)" xlink:href="#ad"/><use transform="matrix(0.055555555555555546,0,0,0.055555555555555546,40.27777777777777,0)" xlink:href="#ae"/></g><path fill="#fff" d="M233-177c-1 41-23 64-60 70L243 0h-38l-65-103H63V0H30v-248c88 3 205-21 203 71zM63-129c60-2 137 13 137-47 0-61-80-42-137-45v92" id="af"/><path fill="#fff" d="M100-194c62-1 85 37 85 99 1 63-27 99-86 99S16-35 15-95c0-66 28-99 85-99zM99-20c44 1 53-31 53-75 0-43-8-75-51-75s-53 32-53 75 10 74 51 75" id="ag"/><path fill="#fff" d="M141-36C126-15 110 5 73 4 37 3 15-17 15-53c-1-64 63-63 125-63 3-35-9-54-41-54-24 1-41 7-42 31l-33-3c5-37 33-52 76-52 45 0 72 20 72 64v82c-1 20 7 32 28 27v20c-31 9-61-2-59-35zM48-53c0 20 12 33 32 33 41-3 63-29 60-74-43 2-92-5-92 41" id="ah"/><path fill="#fff" d="M85-194c31 0 48 13 60 33l-1-100h32l1 261h-30c-2-10 0-23-3-31C134-8 116 4 85 4 32 4 16-35 15-94c0-66 23-100 70-100zm9 24c-40 0-46 34-46 75 0 40 6 74 45 74 42 0 51-32 51-76 0-42-9-74-50-73" id="ai"/><g id="j"><use transform="matrix(0.055555555555555546,0,0,0.055555555555555546,0,0)" xlink:href="#af"/><use transform="matrix(0.055555555555555546,0,0,0.055555555555555546,14.388888888888886,0)" xlink:href="#ag"/><use transform="matrix(0.055555555555555546,0,0,0.055555555555555546,25.499999999999993,0)" xlink:href="#ah"/><use transform="matrix(0.055555555555555546,0,0,0.055555555555555546,36.6111111111111,0)" xlink:href="#ai"/><use transform="matrix(0.055555555555555546,0,0,0.055555555555555546,47.72222222222221,0)" xlink:href="#ae"/></g><path fill="#3a414a" d="M140-251c81 0 123 46 123 126C263-46 219 4 140 4 59 4 17-45 17-125s42-126 123-126zm0 227c63 0 89-41 89-101s-29-99-89-99c-61 0-89 39-89 99S79-25 140-24" id="aj"/><path fill="#3a414a" d="M115-194c53 0 69 39 70 98 0 66-23 100-70 100C84 3 66-7 56-30L54 0H23l1-261h32v101c10-23 28-34 59-34zm-8 174c40 0 45-34 45-75 0-40-5-75-45-74-42 0-51 32-51 76 0 43 10 73 51 73" id="ak"/><path fill="#3a414a" d="M24-231v-30h32v30H24zM-9 49c24 4 33-6 33-30v-209h32V24c2 40-23 58-65 49V49" id="al"/><path fill="#3a414a" d="M96-169c-40 0-48 33-48 73s9 75 48 75c24 0 41-14 43-38l32 2c-6 37-31 61-74 61-59 0-76-41-82-99-10-93 101-131 147-64 4 7 5 14 7 22l-32 3c-4-21-16-35-41-35" id="am"/><g id="k"><use transform="matrix(0.055555555555555546,0,0,0.055555555555555546,0,0)" xlink:href="#aj"/><use transform="matrix(0.055555555555555546,0,0,0.055555555555555546,15.555555555555554,0)" xlink:href="#ak"/><use transform="matrix(0.055555555555555546,0,0,0.055555555555555546,26.666666666666664,0)" xlink:href="#al"/><use transform="matrix(0.055555555555555546,0,0,0.055555555555555546,31.055555555555557,0)" xlink:href="#J"/><use transform="matrix(0.055555555555555546,0,0,0.055555555555555546,42.166666666666664,0)" xlink:href="#am"/><use transform="matrix(0.055555555555555546,0,0,0.055555555555555546,52.166666666666664,0)" xlink:href="#N"/><use transform="matrix(0.055555555555555546,0,0,0.055555555555555546,57.72222222222222,0)" xlink:href="#aa"/></g><path fill="#3a414a" d="M197 0v-115H63V0H30v-248h33v105h134v-105h34V0h-34" id="an"/><path fill="#3a414a" d="M0 4l72-265h28L28 4H0" id="ao"/><path fill="#3a414a" d="M205 0l-28-72H64L36 0H1l101-248h38L239 0h-34zm-38-99l-47-123c-12 45-31 82-46 123h93" id="ap"/><g id="l"><use transform="matrix(0.055555555555555546,0,0,0.055555555555555546,0,0)" xlink:href="#an"/><use transform="matrix(0.055555555555555546,0,0,0.055555555555555546,14.388888888888886,0)" xlink:href="#Y"/><use transform="matrix(0.055555555555555546,0,0,0.055555555555555546,25.499999999999993,0)" xlink:href="#S"/><use transform="matrix(0.055555555555555546,0,0,0.055555555555555546,42.1111111111111,0)" xlink:href="#T"/><use transform="matrix(0.055555555555555546,0,0,0.055555555555555546,53.22222222222221,0)" xlink:href="#V"/><use transform="matrix(0.055555555555555546,0,0,0.055555555555555546,64.33333333333331,0)" xlink:href="#aa"/><use transform="matrix(0.055555555555555546,0,0,0.055555555555555546,74.33333333333331,0)" xlink:href="#ao"/><use transform="matrix(0.055555555555555546,0,0,0.055555555555555546,79.88888888888887,0)" xlink:href="#ap"/><use transform="matrix(0.055555555555555546,0,0,0.055555555555555546,93.2222222222222,0)" xlink:href="#V"/><use transform="matrix(0.055555555555555546,0,0,0.055555555555555546,104.33333333333331,0)" xlink:href="#P"/><use transform="matrix(0.055555555555555546,0,0,0.055555555555555546,108.7222222222222,0)" xlink:href="#S"/><use transform="matrix(0.055555555555555546,0,0,0.055555555555555546,125.33333333333331,0)" xlink:href="#T"/><use transform="matrix(0.055555555555555546,0,0,0.055555555555555546,136.44444444444443,0)" xlink:href="#Z"/><use transform="matrix(0.055555555555555546,0,0,0.055555555555555546,140.83333333333331,0)" xlink:href="#aa"/></g><path fill="#fff" d="M185-189c-5-48-123-54-124 2 14 75 158 14 163 119 3 78-121 87-175 55-17-10-28-26-33-46l33-7c5 56 141 63 141-1 0-78-155-14-162-118-5-82 145-84 179-34 5 7 8 16 11 25" id="aq"/><path fill="#fff" d="M143 0L79-87 56-68V0H24v-261h32v163l83-92h37l-77 82L181 0h-38" id="ar"/><path fill="#fff" d="M179-190L93 31C79 59 56 82 12 73V49c39 6 53-20 64-50L1-190h34L92-34l54-156h33" id="as"/><path fill="#fff" d="M96-169c-40 0-48 33-48 73s9 75 48 75c24 0 41-14 43-38l32 2c-6 37-31 61-74 61-59 0-76-41-82-99-10-93 101-131 147-64 4 7 5 14 7 22l-32 3c-4-21-16-35-41-35" id="at"/><path fill="#fff" d="M108 0H70L1-190h34L89-25l56-165h34" id="au"/><g id="m"><use transform="matrix(0.055555555555555546,0,0,0.055555555555555546,0,0)" xlink:href="#aq"/><use transform="matrix(0.055555555555555546,0,0,0.055555555555555546,13.33333333333333,0)" xlink:href="#ar"/><use transform="matrix(0.055555555555555546,0,0,0.055555555555555546,23.33333333333333,0)" xlink:href="#as"/><use transform="matrix(0.055555555555555546,0,0,0.055555555555555546,33.33333333333333,0)" xlink:href="#at"/><use transform="matrix(0.055555555555555546,0,0,0.055555555555555546,43.33333333333333,0)" xlink:href="#ag"/><use transform="matrix(0.055555555555555546,0,0,0.055555555555555546,54.444444444444436,0)" xlink:href="#au"/><use transform="matrix(0.055555555555555546,0,0,0.055555555555555546,64.44444444444443,0)" xlink:href="#ad"/><use transform="matrix(0.055555555555555546,0,0,0.055555555555555546,75.55555555555554,0)" xlink:href="#ac"/></g><path fill="#3a414a" d="M266 0h-40l-56-210L115 0H75L2-248h35L96-30l15-64 43-154h32l59 218 59-218h35" id="av"/><path fill="#3a414a" d="M100-194c62-1 85 37 85 99 1 63-27 99-86 99S16-35 15-95c0-66 28-99 85-99zM99-20c44 1 53-31 53-75 0-43-8-75-51-75s-53 32-53 75 10 74 51 75" id="aw"/><g id="n"><use transform="matrix(0.055555555555555546,0,0,0.055555555555555546,0,0)" xlink:href="#av"/><use transform="matrix(0.055555555555555546,0,0,0.055555555555555546,18.83333333333333,0)" xlink:href="#P"/><use transform="matrix(0.055555555555555546,0,0,0.055555555555555546,23.222222222222218,0)" xlink:href="#V"/><use transform="matrix(0.055555555555555546,0,0,0.055555555555555546,34.33333333333333,0)" xlink:href="#W"/><use transform="matrix(0.055555555555555546,0,0,0.055555555555555546,45.444444444444436,0)" xlink:href="#aw"/><use transform="matrix(0.055555555555555546,0,0,0.055555555555555546,56.55555555555554,0)" xlink:href="#Q"/><use transform="matrix(0.055555555555555546,0,0,0.055555555555555546,70.94444444444443,0)" xlink:href="#aa"/></g><path fill="#3a414a" d="M101-234c-31-9-42 10-38 44h38v23H63V0H32v-167H5v-23h27c-7-52 17-82 69-68v24" id="ax"/><g id="o"><use transform="matrix(0.055555555555555546,0,0,0.055555555555555546,0,0)" xlink:href="#M"/><use transform="matrix(0.055555555555555546,0,0,0.055555555555555546,13.33333333333333,0)" xlink:href="#Y"/><use transform="matrix(0.055555555555555546,0,0,0.055555555555555546,24.44444444444444,0)" xlink:href="#L"/><use transform="matrix(0.055555555555555546,0,0,0.055555555555555546,31.05555555555555,0)" xlink:href="#ax"/><use transform="matrix(0.055555555555555546,0,0,0.055555555555555546,36.61111111111111,0)" xlink:href="#T"/><use transform="matrix(0.055555555555555546,0,0,0.055555555555555546,47.722222222222214,0)" xlink:href="#am"/><use transform="matrix(0.055555555555555546,0,0,0.055555555555555546,57.722222222222214,0)" xlink:href="#J"/><use transform="matrix(0.055555555555555546,0,0,0.055555555555555546,68.83333333333333,0)" xlink:href="#aa"/></g><path fill="#fff" d="M143 4C61 4 22-44 18-125c-5-107 100-154 193-111 17 8 29 25 37 43l-32 9c-13-25-37-40-76-40-61 0-88 39-88 99 0 61 29 100 91 101 35 0 62-11 79-27v-45h-74v-28h105v86C228-13 192 4 143 4" id="ay"/><path fill="#fff" d="M24 0v-261h32V0H24" id="az"/><g id="p"><use transform="matrix(0.055555555555555546,0,0,0.055555555555555546,0,0)" xlink:href="#ay"/><use transform="matrix(0.055555555555555546,0,0,0.055555555555555546,15.555555555555554,0)" xlink:href="#az"/><use transform="matrix(0.055555555555555546,0,0,0.055555555555555546,19.944444444444443,0)" xlink:href="#ah"/><use transform="matrix(0.055555555555555546,0,0,0.055555555555555546,31.05555555555555,0)" xlink:href="#ae"/><use transform="matrix(0.055555555555555546,0,0,0.055555555555555546,41.05555555555555,0)" xlink:href="#ae"/></g><path fill="#3a414a" d="M190 0L58-211 59 0H30v-248h39L202-35l-2-213h31V0h-41" id="aA"/><path fill="#3a414a" d="M16-82v-28h88v28H16" id="aB"/><path fill="#3a414a" d="M143 4C61 4 22-44 18-125c-5-107 100-154 193-111 17 8 29 25 37 43l-32 9c-13-25-37-40-76-40-61 0-88 39-88 99 0 61 29 100 91 101 35 0 62-11 79-27v-45h-74v-28h105v86C228-13 192 4 143 4" id="aC"/><g id="q"><use transform="matrix(0.055555555555555546,0,0,0.055555555555555546,0,0)" xlink:href="#aA"/><use transform="matrix(0.055555555555555546,0,0,0.055555555555555546,14.388888888888886,0)" xlink:href="#aw"/><use transform="matrix(0.055555555555555546,0,0,0.055555555555555546,25.499999999999993,0)" xlink:href="#V"/><use transform="matrix(0.055555555555555546,0,0,0.055555555555555546,36.6111111111111,0)" xlink:href="#aB"/><use transform="matrix(0.055555555555555546,0,0,0.055555555555555546,43.22222222222221,0)" xlink:href="#aC"/><use transform="matrix(0.055555555555555546,0,0,0.055555555555555546,58.77777777777776,0)" xlink:href="#Z"/><use transform="matrix(0.055555555555555546,0,0,0.055555555555555546,63.16666666666664,0)" xlink:href="#T"/><use transform="matrix(0.055555555555555546,0,0,0.055555555555555546,74.27777777777776,0)" xlink:href="#aa"/><use transform="matrix(0.055555555555555546,0,0,0.055555555555555546,84.27777777777776,0)" xlink:href="#aa"/></g><path fill="#fff" d="M30 0v-248h33v221h125V0H30" id="aD"/><path fill="#fff" d="M24-231v-30h32v30H24zM24 0v-190h32V0H24" id="aE"/><path fill="#fff" d="M177-190C167-65 218 103 67 71c-23-6-38-20-44-43l32-5c15 47 100 32 89-28v-30C133-14 115 1 83 1 29 1 15-40 15-95c0-56 16-97 71-98 29-1 48 16 59 35 1-10 0-23 2-32h30zM94-22c36 0 50-32 50-73 0-42-14-75-50-75-39 0-46 34-46 75s6 73 46 73" id="aF"/><path fill="#fff" d="M106-169C34-169 62-67 57 0H25v-261h32l-1 103c12-21 28-36 61-36 89 0 53 116 60 194h-32v-121c2-32-8-49-39-48" id="aG"/><path fill="#fff" d="M59-47c-2 24 18 29 38 22v24C64 9 27 4 27-40v-127H5v-23h24l9-43h21v43h35v23H59v120" id="aH"/><g id="r"><use transform="matrix(0.055555555555555546,0,0,0.055555555555555546,0,0)" xlink:href="#aD"/><use transform="matrix(0.055555555555555546,0,0,0.055555555555555546,11.111111111111109,0)" xlink:href="#aE"/><use transform="matrix(0.055555555555555546,0,0,0.055555555555555546,15.499999999999996,0)" xlink:href="#aF"/><use transform="matrix(0.055555555555555546,0,0,0.055555555555555546,26.611111111111107,0)" xlink:href="#aG"/><use transform="matrix(0.055555555555555546,0,0,0.055555555555555546,37.722222222222214,0)" xlink:href="#aH"/></g><path fill="#fff" d="M212-179c-10-28-35-45-73-45-59 0-87 40-87 99 0 60 29 101 89 101 43 0 62-24 78-52l27 14C228-24 195 4 139 4 59 4 22-46 18-125c-6-104 99-153 187-111 19 9 31 26 39 46" id="aI"/><g id="s"><use transform="matrix(0.055555555555555546,0,0,0.055555555555555546,0,0)" xlink:href="#aI"/><use transform="matrix(0.055555555555555546,0,0,0.055555555555555546,14.388888888888886,0)" xlink:href="#ag"/><use transform="matrix(0.055555555555555546,0,0,0.055555555555555546,25.499999999999993,0)" xlink:href="#az"/><use transform="matrix(0.055555555555555546,0,0,0.055555555555555546,29.888888888888882,0)" xlink:href="#ag"/><use transform="matrix(0.055555555555555546,0,0,0.055555555555555546,40.99999999999999,0)" xlink:href="#ac"/><use transform="matrix(0.055555555555555546,0,0,0.055555555555555546,47.6111111111111,0)" xlink:href="#ad"/><use transform="matrix(0.055555555555555546,0,0,0.055555555555555546,58.722222222222214,0)" xlink:href="#ai"/></g><path fill="#fff" d="M240 0l2-218c-23 76-54 145-80 218h-23L58-218 59 0H30v-248h44l77 211c21-75 51-140 76-211h43V0h-30" id="aJ"/><g id="t"><use transform="matrix(0.055555555555555546,0,0,0.055555555555555546,0,0)" xlink:href="#aJ"/><use transform="matrix(0.055555555555555546,0,0,0.055555555555555546,16.611111111111107,0)" xlink:href="#ah"/><use transform="matrix(0.055555555555555546,0,0,0.055555555555555546,27.722222222222214,0)" xlink:href="#aH"/><use transform="matrix(0.055555555555555546,0,0,0.055555555555555546,33.27777777777777,0)" xlink:href="#ad"/><use transform="matrix(0.055555555555555546,0,0,0.055555555555555546,44.38888888888888,0)" xlink:href="#ac"/><use transform="matrix(0.055555555555555546,0,0,0.055555555555555546,50.999999999999986,0)" xlink:href="#aE"/><use transform="matrix(0.055555555555555546,0,0,0.055555555555555546,55.38888888888887,0)" xlink:href="#ah"/><use transform="matrix(0.055555555555555546,0,0,0.055555555555555546,66.49999999999999,0)" xlink:href="#az"/></g><path fill="#fff" d="M30-248c118-7 216 8 213 122C240-48 200 0 122 0H30v-248zM63-27c89 8 146-16 146-99s-60-101-146-95v194" id="aK"/><g id="u"><use transform="matrix(0.055555555555555546,0,0,0.055555555555555546,0,0)" xlink:href="#aK"/><use transform="matrix(0.055555555555555546,0,0,0.055555555555555546,14.388888888888886,0)" xlink:href="#ah"/><use transform="matrix(0.055555555555555546,0,0,0.055555555555555546,25.499999999999993,0)" xlink:href="#ac"/><use transform="matrix(0.055555555555555546,0,0,0.055555555555555546,32.1111111111111,0)" xlink:href="#ar"/></g><path fill="#fff" d="M117-194c89-4 53 116 60 194h-32v-121c0-31-8-49-39-48C34-167 62-67 57 0H25l-1-190h30c1 10-1 24 2 32 11-22 29-35 61-36" id="aL"/><path fill="#fff" d="M210-169c-67 3-38 105-44 169h-31v-121c0-29-5-50-35-48C34-165 62-65 56 0H25l-1-190h30c1 10-1 24 2 32 10-44 99-50 107 0 11-21 27-35 58-36 85-2 47 119 55 194h-31v-121c0-29-5-49-35-48" id="aM"/><g id="v"><use transform="matrix(0.055555555555555546,0,0,0.055555555555555546,0,0)" xlink:href="#af"/><use transform="matrix(0.055555555555555546,0,0,0.055555555555555546,14.388888888888886,0)" xlink:href="#ah"/><use transform="matrix(0.055555555555555546,0,0,0.055555555555555546,25.499999999999993,0)" xlink:href="#aL"/><use transform="matrix(0.055555555555555546,0,0,0.055555555555555546,36.6111111111111,0)" xlink:href="#ai"/><use transform="matrix(0.055555555555555546,0,0,0.055555555555555546,47.72222222222221,0)" xlink:href="#ag"/><use transform="matrix(0.055555555555555546,0,0,0.055555555555555546,58.83333333333331,0)" xlink:href="#aM"/></g><path fill="#fff" d="M63-220v92h138v28H63V0H30v-248h175v28H63" id="aN"/><g id="w"><use transform="matrix(0.055555555555555546,0,0,0.055555555555555546,0,0)" xlink:href="#aN"/><use transform="matrix(0.055555555555555546,0,0,0.055555555555555546,12.166666666666664,0)" xlink:href="#ag"/><use transform="matrix(0.055555555555555546,0,0,0.055555555555555546,23.27777777777777,0)" xlink:href="#ac"/><use transform="matrix(0.055555555555555546,0,0,0.055555555555555546,29.888888888888882,0)" xlink:href="#ad"/><use transform="matrix(0.055555555555555546,0,0,0.055555555555555546,40.99999999999999,0)" xlink:href="#ae"/><use transform="matrix(0.055555555555555546,0,0,0.055555555555555546,50.99999999999999,0)" xlink:href="#aH"/></g><g id="x"><use transform="matrix(0.055555555555555546,0,0,0.055555555555555546,0,0)" xlink:href="#af"/><use transform="matrix(0.055555555555555546,0,0,0.055555555555555546,14.388888888888886,0)" xlink:href="#ad"/><use transform="matrix(0.055555555555555546,0,0,0.055555555555555546,25.499999999999993,0)" xlink:href="#aF"/><use transform="matrix(0.055555555555555546,0,0,0.055555555555555546,36.6111111111111,0)" xlink:href="#ac"/><use transform="matrix(0.055555555555555546,0,0,0.055555555555555546,43.22222222222221,0)" xlink:href="#ad"/><use transform="matrix(0.055555555555555546,0,0,0.055555555555555546,54.333333333333314,0)" xlink:href="#ae"/><use transform="matrix(0.055555555555555546,0,0,0.055555555555555546,64.33333333333331,0)" xlink:href="#ae"/><use transform="matrix(0.055555555555555546,0,0,0.055555555555555546,74.33333333333331,0)" xlink:href="#aE"/><use transform="matrix(0.055555555555555546,0,0,0.055555555555555546,78.7222222222222,0)" xlink:href="#aE"/><use transform="matrix(0.055555555555555546,0,0,0.055555555555555546,83.11111111111109,0)" xlink:href="#ag"/><use transform="matrix(0.055555555555555546,0,0,0.055555555555555546,94.2222222222222,0)" xlink:href="#aL"/></g><g id="y"><use transform="matrix(0.055555555555555546,0,0,0.055555555555555546,0,0)" xlink:href="#aJ"/><use transform="matrix(0.055555555555555546,0,0,0.055555555555555546,16.611111111111107,0)" xlink:href="#ag"/><use transform="matrix(0.055555555555555546,0,0,0.055555555555555546,27.722222222222214,0)" xlink:href="#ai"/><use transform="matrix(0.055555555555555546,0,0,0.055555555555555546,38.83333333333332,0)" xlink:href="#ad"/><use transform="matrix(0.055555555555555546,0,0,0.055555555555555546,49.94444444444443,0)" xlink:href="#az"/></g><path fill="#3a414a" d="M63-220v92h138v28H63V0H30v-248h175v28H63" id="aO"/><g id="z"><use transform="matrix(0.055555555555555546,0,0,0.055555555555555546,0,0)" xlink:href="#M"/><use transform="matrix(0.055555555555555546,0,0,0.055555555555555546,13.33333333333333,0)" xlink:href="#J"/><use transform="matrix(0.055555555555555546,0,0,0.055555555555555546,24.44444444444444,0)" xlink:href="#K"/><use transform="matrix(0.055555555555555546,0,0,0.055555555555555546,35.55555555555555,0)" xlink:href="#aO"/><use transform="matrix(0.055555555555555546,0,0,0.055555555555555546,47.722222222222214,0)" xlink:href="#aw"/><use transform="matrix(0.055555555555555546,0,0,0.055555555555555546,58.83333333333332,0)" xlink:href="#L"/><use transform="matrix(0.055555555555555546,0,0,0.055555555555555546,65.44444444444443,0)" xlink:href="#S"/><use transform="matrix(0.055555555555555546,0,0,0.055555555555555546,82.05555555555554,0)" xlink:href="#J"/><use transform="matrix(0.055555555555555546,0,0,0.055555555555555546,93.16666666666666,0)" xlink:href="#L"/></g><g id="A"><use transform="matrix(0.055555555555555546,0,0,0.055555555555555546,0,0)" xlink:href="#M"/><use transform="matrix(0.055555555555555546,0,0,0.055555555555555546,13.33333333333333,0)" xlink:href="#J"/><use transform="matrix(0.055555555555555546,0,0,0.055555555555555546,24.44444444444444,0)" xlink:href="#S"/><use transform="matrix(0.055555555555555546,0,0,0.055555555555555546,41.05555555555554,0)" xlink:href="#T"/><use transform="matrix(0.055555555555555546,0,0,0.055555555555555546,52.16666666666665,0)" xlink:href="#V"/><use transform="matrix(0.055555555555555546,0,0,0.055555555555555546,63.27777777777776,0)" xlink:href="#N"/><use transform="matrix(0.055555555555555546,0,0,0.055555555555555546,68.83333333333331,0)" xlink:href="#P"/><use transform="matrix(0.055555555555555546,0,0,0.055555555555555546,73.2222222222222,0)" xlink:href="#am"/></g><g id="B"><use transform="matrix(0.055555555555555546,0,0,0.055555555555555546,0,0)" xlink:href="#M"/><use transform="matrix(0.055555555555555546,0,0,0.055555555555555546,13.33333333333333,0)" xlink:href="#J"/><use transform="matrix(0.055555555555555546,0,0,0.055555555555555546,24.44444444444444,0)" xlink:href="#K"/><use transform="matrix(0.055555555555555546,0,0,0.055555555555555546,35.55555555555555,0)" xlink:href="#S"/><use transform="matrix(0.055555555555555546,0,0,0.055555555555555546,52.16666666666666,0)" xlink:href="#J"/><use transform="matrix(0.055555555555555546,0,0,0.055555555555555546,63.277777777777764,0)" xlink:href="#V"/><use transform="matrix(0.055555555555555546,0,0,0.055555555555555546,74.38888888888887,0)" xlink:href="#N"/><use transform="matrix(0.055555555555555546,0,0,0.055555555555555546,79.94444444444443,0)" xlink:href="#T"/><use transform="matrix(0.055555555555555546,0,0,0.055555555555555546,91.05555555555554,0)" xlink:href="#N"/><use transform="matrix(0.055555555555555546,0,0,0.055555555555555546,96.6111111111111,0)" xlink:href="#P"/><use transform="matrix(0.055555555555555546,0,0,0.055555555555555546,100.99999999999999,0)" xlink:href="#aw"/><use transform="matrix(0.055555555555555546,0,0,0.055555555555555546,112.1111111111111,0)" xlink:href="#V"/></g><g id="C"><use transform="matrix(0.055555555555555546,0,0,0.055555555555555546,0,0)" xlink:href="#ab"/><use transform="matrix(0.055555555555555546,0,0,0.055555555555555546,12.166666666666664,0)" xlink:href="#aG"/><use transform="matrix(0.055555555555555546,0,0,0.055555555555555546,23.27777777777777,0)" xlink:href="#ad"/><use transform="matrix(0.055555555555555546,0,0,0.055555555555555546,34.38888888888888,0)" xlink:href="#ac"/><use transform="matrix(0.055555555555555546,0,0,0.055555555555555546,40.999999999999986,0)" xlink:href="#aM"/><use transform="matrix(0.055555555555555546,0,0,0.055555555555555546,57.611111111111086,0)" xlink:href="#ah"/><use transform="matrix(0.055555555555555546,0,0,0.055555555555555546,68.7222222222222,0)" xlink:href="#az"/></g><path fill="#fff" d="M101-234c-31-9-42 10-38 44h38v23H63V0H32v-167H5v-23h27c-7-52 17-82 69-68v24" id="aP"/><g id="D"><use transform="matrix(0.055555555555555546,0,0,0.055555555555555546,0,0)" xlink:href="#aI"/><use transform="matrix(0.055555555555555546,0,0,0.055555555555555546,14.388888888888886,0)" xlink:href="#ag"/><use transform="matrix(0.055555555555555546,0,0,0.055555555555555546,25.499999999999993,0)" xlink:href="#aM"/><use transform="matrix(0.055555555555555546,0,0,0.055555555555555546,42.1111111111111,0)" xlink:href="#aP"/><use transform="matrix(0.055555555555555546,0,0,0.055555555555555546,47.66666666666666,0)" xlink:href="#ag"/><use transform="matrix(0.055555555555555546,0,0,0.055555555555555546,58.777777777777764,0)" xlink:href="#ac"/><use transform="matrix(0.055555555555555546,0,0,0.055555555555555546,65.38888888888887,0)" xlink:href="#aH"/></g><path fill="#fff" d="M137 0h-34L2-248h35l83 218 83-218h36" id="aQ"/><path fill="#fff" d="M84 4C-5 8 30-112 23-190h32v120c0 31 7 50 39 49 72-2 45-101 50-169h31l1 190h-30c-1-10 1-25-2-33-11 22-28 36-60 37" id="aR"/><g id="E"><use transform="matrix(0.055555555555555546,0,0,0.055555555555555546,0,0)" xlink:href="#aQ"/><use transform="matrix(0.055555555555555546,0,0,0.055555555555555546,11.83333333333333,0)" xlink:href="#ah"/><use transform="matrix(0.055555555555555546,0,0,0.055555555555555546,22.94444444444444,0)" xlink:href="#az"/><use transform="matrix(0.055555555555555546,0,0,0.055555555555555546,27.33333333333333,0)" xlink:href="#aR"/><use transform="matrix(0.055555555555555546,0,0,0.055555555555555546,38.444444444444436,0)" xlink:href="#ad"/><use transform="matrix(0.055555555555555546,0,0,0.055555555555555546,49.55555555555554,0)" xlink:href="#ae"/></g></defs></g></svg>